<?xml version="1.0" encoding="utf-8"?>
<!-- Generator: Adobe Illustrator 21.1.0, SVG Export Plug-In . SVG Version: 6.00 Build 0)  -->
<svg version="1.1" id="Capa_1" xmlns="http://www.w3.org/2000/svg" xmlns:xlink="http://www.w3.org/1999/xlink" x="0px" y="0px"
	 viewBox="0 0 265 58" style="enable-background:new 0 0 265 58;" xml:space="preserve">
<style type="text/css">
	.st0{fill:#FFFFFF;}
</style>
<g>
	<g>
		<circle class="st0" cx="132.5" cy="51.8" r="5.1"/>
		<g>
			<circle class="st0" cx="119.2" cy="51.8" r="5.1"/>
			<circle class="st0" cx="145.8" cy="51.8" r="5.1"/>
		</g>
	</g>
	<g>
		<path class="st0" d="M58.5,1.1c0.5,3-0.2,5.8-1.1,8.6c-0.7,2-1,4-0.2,6.1c1,2.7,3.1,4.2,5.7,5.3c-0.4-0.8-0.8-1.5-1.1-2.2
			c-0.6-1.6-0.6-3.2-0.4-4.9c0.4-2.8,0.6-5.6-0.1-8.4c0.2,0.5,0.4,1,0.5,1.5c0.2,2.2,0.4,4.5,0.4,6.7c0,2.4,0.2,4.7,2,6.5
			c0.3,0.3,0.6,0.5,0.9,0.8C69.1,12.7,66.4,5.6,58.5,1.1z"/>
		<g>
			<g>
				<rect x="68.2" y="17.6" class="st0" width="4.2" height="22.5"/>
				<path class="st0" d="M85,24c-2,0-3.6,0.5-5.2,2.1v-1.8H76v15.9h3.9v-8.4c0-2.4,1.6-4.1,4.1-4.1c2.5,0,3.8,1.8,3.8,4.3v8.3h3.9
					v-8.3C91.7,26.8,88.7,24,85,24z"/>
				<path class="st0" d="M98.9,34.5v-6.9h1.5v-3.4h-1.5v-6.8H95v6.8h-1v3.4h1v6.9c0,4,3.2,5.8,6.6,5.8v-3.5
					C100.3,36.8,98.9,36,98.9,34.5z"/>
				<path class="st0" d="M111.3,23.8c-5.2,0-8.4,3.5-8.4,8.3c0,5.1,3.3,8.5,8.7,8.5c2.4,0,5.2-0.8,6.8-2.6l-2.5-2.5
					c-0.9,0.9-2.8,1.5-4.3,1.5c-2.8,0-4.5-1.4-4.7-3.4h12.4C120,27.1,116.6,23.8,111.3,23.8z M107,30.3c0.6-2.1,2.3-3.1,4.4-3.1
					c2.3,0,3.9,1,4.1,3.1H107z"/>
				<path class="st0" d="M126.3,26.1v-1.8h-3.9v15.9h3.9v-8.4c0-2.9,2.4-4,4.5-4v-3.9C129.2,23.8,127.5,24.1,126.3,26.1z"/>
			</g>
			<g>
				<path class="st0" d="M144.4,36.7c-5.6,0-7.7-3.9-7.8-7.6c0-3.8,2.3-7.8,7.8-7.8c2,0,4,0.7,5.4,2.1l2.8-2.7
					c-2.3-2.3-5.2-3.4-8.3-3.4c-8.1,0-12,6-11.9,11.9c0,5.9,3.6,11.6,11.9,11.6c3.3,0,6.2-1.1,8.6-3.3l-2.9-2.9
					C148.6,35.9,146.4,36.7,144.4,36.7z"/>
				<rect x="154.8" y="17.6" class="st0" width="3.9" height="22.5"/>
				<path class="st0" d="M169.8,23.8c-5.2,0-8.4,3.5-8.4,8.3c0,5.1,3.3,8.5,8.7,8.5c2.4,0,5.2-0.8,6.8-2.6l-2.5-2.5
					c-0.9,0.9-2.8,1.5-4.3,1.5c-2.8,0-4.5-1.4-4.7-3.4h12.4C178.5,27.1,175.2,23.8,169.8,23.8z M165.5,30.3c0.6-2.1,2.3-3.1,4.4-3.1
					c2.3,0,3.9,1,4.1,3.1H165.5z"/>
				<path class="st0" d="M193.4,26.4c-0.9-1.6-2.9-2.6-5.1-2.6c-4.6,0-8.3,2.8-8.3,8.3c0,5.6,3.5,8.5,8.2,8.4c1.8,0,4.3-0.9,5.2-2.8
					v2.3h3.9V24.3h-3.9V26.4z M188.7,37c-2.6,0-4.7-1.8-4.7-4.8c0-3,2.1-4.8,4.7-4.8C194.8,27.4,194.8,37,188.7,37z"/>
				<path class="st0" d="M209.5,24c-2,0-3.6,0.5-5.2,2.1v-1.8h-3.8v15.9h3.9v-8.4c0-2.4,1.6-4.1,4.1-4.1c2.5,0,3.8,1.8,3.8,4.3v8.3
					h3.9v-8.3C216.2,26.8,213.2,24,209.5,24z"/>
			</g>
		</g>
		<path class="st0" d="M48.8,18.7c2.9,1,5.8,0.7,8.7,0.2c2.1-0.4,4.1-0.4,6,0.7c2.5,1.4,3.7,3.6,4.4,6.4c-0.8-0.5-1.4-1-2-1.4
			c-1.5-0.8-3.1-1.1-4.8-1.1c-2.8,0-5.6-0.2-8.3-1.3c0.5,0.2,0.9,0.6,1.4,0.7c2.2,0.5,4.3,1.1,6.5,1.4c2.4,0.3,4.6,0.9,6.1,2.9
			c0.2,0.3,0.4,0.7,0.7,1C58.7,30.9,52,27.2,48.8,18.7z"/>
	</g>
</g>
</svg>
